<svg xmlns="http://www.w3.org/2000/svg" version="1.1" xmlns:xlink="http://www.w3.org/1999/xlink" xmlns:svgjs="http://svgjs.dev/svgjs" width="2000" height="1247" viewBox="0 0 2000 1247"><g transform="matrix(1,0,0,1,-1.2121212121212466,0.504858299595071)"><svg viewBox="0 0 396 247" data-background-color="#ffffff" preserveAspectRatio="xMidYMid meet" height="1247" width="2000" xmlns="http://www.w3.org/2000/svg" xmlns:xlink="http://www.w3.org/1999/xlink"><g id="tight-bounds" transform="matrix(1,0,0,1,0.2400000000000091,-0.09999999999999432)"><svg viewBox="0 0 395.52 247.2" height="247.2" width="395.52"><g><svg></svg></g><g><svg viewBox="0 0 395.52 247.2" height="247.2" width="395.52"><g transform="matrix(1,0,0,1,151.01453481152993,47.215199999999996)"><svg viewBox="0 0 93.49093037694013 152.7696" height="152.7696" width="93.49093037694013"><g><svg viewBox="0 0 93.49093037694013 152.7696" height="152.7696" width="93.49093037694013"><g><svg viewBox="0 0 93.49093037694013 152.7696" height="152.7696" width="93.49093037694013"><g><svg viewBox="0 0 93.49093037694013 152.7696" height="152.7696" width="93.49093037694013"><g><svg viewBox="0 0 93.49093037694013 152.7696" height="152.7696" width="93.49093037694013"><g><svg viewBox="0 0 93.49093037694013 152.7696" height="152.7696" width="93.49093037694013"><g transform="matrix(1,0,0,1,0,0)"><svg width="93.49093037694013" viewBox="2.4000000953674316 -33.75 20.93000030517578 34.209999084472656" height="152.7696" data-palette-color="#ff0033"><path d="M23.33-8.85L23.33-8.85Q23.33-4.45 20.16-2 16.99 0.46 11.29 0.46 5.59 0.46 2.4-1.06L2.4-1.06 2.4-4.8Q6.9-2.93 11.65-2.93L11.65-2.93Q15.47-2.93 17.45-4.37 19.44-5.81 19.44-8.49L19.44-8.49Q19.44-10.21 18.74-11.3 18.05-12.39 16.41-13.35 14.76-14.31 11.48-15.47L11.48-15.47Q6.85-17.11 4.84-19.39 2.83-21.66 2.83-25.43 2.83-29.2 5.71-31.47L5.71-31.47Q8.65-33.75 13.49-33.75 18.33-33.75 22.5-31.93L22.5-31.93 21.28-28.54Q17.16-30.28 13.3-30.28L13.3-30.28Q10.21-30.28 8.48-28.96 6.75-27.63 6.75-25.3L6.75-25.3Q6.75-23.53 7.37-22.47 7.99-21.41 9.53-20.42L9.53-20.42Q11.12-19.46 14.18-18.4L14.18-18.4Q19.44-16.53 21.36-14.38L21.36-14.38Q23.33-12.26 23.33-8.85Z" opacity="1" transform="matrix(1,0,0,1,0,0)" fill="#ff0033" class="undefined-text-0" data-fill-palette-color="primary" id="text-0"></path></svg></g></svg></g></svg></g></svg></g></svg></g></svg></g></svg></g><path d="M62.204 41.215L62.204 0 309.404 0 309.404 247.2 62.204 247.2 62.204 205.985 75.981 205.985 75.981 233.423 295.627 233.423 295.627 13.777 75.981 13.777 75.981 41.215Z" fill="#ff0033" stroke="transparent" data-fill-palette-color="primary"></path></svg></g><defs></defs></svg><rect width="395.52" height="247.2" fill="none" stroke="none" visibility="hidden"></rect></g></svg></g></svg>